<mxfile host="app.diagrams.net" modified="2024-05-14T07:39:52.026Z" agent="Mozilla/5.0 (Windows NT 10.0; Win64; x64) AppleWebKit/537.36 (KHTML, like Gecko) Chrome/124.0.0.0 Safari/537.36" etag="RN9PGo7wktHMRFg9en8r" version="24.4.0" type="github">
  <diagram name="Page-1" id="7e0a89b8-554c-2b80-1dc8-d5c74ca68de4">
    <mxGraphModel dx="1050" dy="530" grid="1" gridSize="10" guides="1" tooltips="1" connect="1" arrows="1" fold="1" page="1" pageScale="1" pageWidth="1100" pageHeight="850" background="none" math="0" shadow="0">
      <root>
        <mxCell id="0" />
        <mxCell id="1" parent="0" />
        <mxCell id="PjNGecmV4OdAs0pPkN_l-3" value="" style="pointerEvents=1;verticalLabelPosition=bottom;shadow=0;dashed=0;align=center;html=1;verticalAlign=top;shape=mxgraph.electrical.waveforms.square_wave;" vertex="1" parent="1">
          <mxGeometry x="330" y="90" width="90" height="80" as="geometry" />
        </mxCell>
        <mxCell id="PjNGecmV4OdAs0pPkN_l-4" value="" style="pointerEvents=1;verticalLabelPosition=bottom;shadow=0;dashed=0;align=center;html=1;verticalAlign=top;shape=mxgraph.electrical.waveforms.square_wave;" vertex="1" parent="1">
          <mxGeometry x="420" y="90" width="90" height="80" as="geometry" />
        </mxCell>
        <mxCell id="PjNGecmV4OdAs0pPkN_l-5" value="" style="pointerEvents=1;verticalLabelPosition=bottom;shadow=0;dashed=0;align=center;html=1;verticalAlign=top;shape=mxgraph.electrical.waveforms.square_wave;" vertex="1" parent="1">
          <mxGeometry x="510" y="90" width="90" height="80" as="geometry" />
        </mxCell>
      </root>
    </mxGraphModel>
  </diagram>
</mxfile>
